<?xml version="1.0" encoding="UTF-8" standalone="no"?><!DOCTYPE svg PUBLIC "-//W3C//DTD SVG 1.1//EN" "http://www.w3.org/Graphics/SVG/1.1/DTD/svg11.dtd"><svg width="100%" height="100%" viewBox="0 0 453 450" version="1.1" xmlns="http://www.w3.org/2000/svg" xmlns:xlink="http://www.w3.org/1999/xlink" xml:space="preserve" xmlns:serif="http://www.serif.com/" style="fill-rule:evenodd;clip-rule:evenodd;stroke-linejoin:round;stroke-miterlimit:2;"><rect id="Page-1" serif:id="Page 1" x="0" y="0" width="452.641" height="449.229" style="fill:none;"/><g id="Layer-1" serif:id="Layer 1"><path d="M81.189,385.491c6.729,-18.783 14.475,-36.613 23.808,-53.979c-24.446,-28.462 -38.838,-65.821 -38.838,-106.062c0,-87.283 71.362,-158.792 158.625,-160.304c55.525,-0.958 104.896,26.992 133.608,67.35c18.958,-5.142 37.638,-8.983 57.604,-11.275c-37.45,-67.692 -111.808,-112.642 -192.258,-110.612c-117.842,2.971 -212.304,98.45 -212.3,214.954c0,63.204 26.488,120.275 69.75,159.929" style="fill-rule:nonzero;"/><path d="M388.396,230.562c-0.7,88.908 -79.238,157.9 -158.804,157.229c-47.958,-0.404 -88.221,-18.558 -118.987,-50.079c-9.333,17.35 -16.613,34.383 -23.325,53.179c38.583,33.271 88.425,51.621 143.113,51.621c111.7,0 210.679,-93.263 212.983,-211.979c0.721,-37.204 -7.283,-72.654 -24.067,-103.154c-19.958,2.283 -37.812,6.021 -56.771,11.158c18.413,25.854 26.113,59.675 25.858,92.025" style="fill-rule:nonzero;"/><path d="M224.205,271.928c2.379,1.188 4.633,2.025 6.8,2.579c3.8,-6.554 10.871,-10.962 18.971,-10.962c1.6,0 3.162,0.192 4.675,0.513c5.913,-7.438 11.654,-15.071 16.633,-23.146c-5.042,-5.371 -8.146,-12.567 -8.146,-20.504c0,-10.404 5.3,-19.558 13.337,-24.938c-0.029,-0.754 -0.1,-1.512 -0.192,-2.225c-0.646,-4.592 -2.846,-9.071 -4.962,-13.279c-6.021,-11.933 -8.754,-26.604 -20.196,-34.087c-1.379,-0.013 -2.771,-0.092 -4.188,-0.304c-5.65,-0.888 -10.55,-3.404 -14.117,-6.858c-1.325,-0.233 -2.583,-0.292 -3.633,0.167c-30.929,13.021 -57.775,32.096 -83.354,54.283c1.567,3.15 2.471,6.671 2.471,10.412c0,3.258 -0.675,6.371 -1.879,9.188c22.842,24.725 48.192,44.583 77.779,59.162" style="fill-rule:nonzero;"/><path d="M323.158,135.268c-4.738,20.425 -9.467,40.175 -13.754,59.983c8.246,5.333 13.712,14.592 13.712,25.158c0,11.312 -6.275,21.167 -15.529,26.263c0.996,12.967 2.2,25.904 3.842,38.762c6.288,1.646 11.413,6.171 13.829,12.108c6.992,0.108 14.092,-2.325 19.992,-6.433c9.908,-18.717 15.542,-40.042 15.542,-62.692c0,-36.188 -14.35,-69.008 -37.633,-93.15" style="fill-rule:nonzero;"/><path d="M112.877,157.122c0.037,0.654 0.021,1.35 0.096,1.967c1.05,8.333 3.938,15.725 9.662,21.204c0.746,-0.071 1.5,-0.108 2.258,-0.108c5.179,0 9.938,1.692 13.808,4.533c26.379,-21.938 55.504,-39.125 87.108,-52.25c0.762,-0.317 1.454,-0.642 2.1,-0.992c-1.117,-2.846 -1.542,-5.917 -1.058,-9.021c0.446,-2.9 1.642,-5.529 3.387,-7.8c-0.262,-0.254 -0.512,-0.517 -0.792,-0.779c-4.262,-3.975 -8.717,-7.85 -13.587,-11.021c-3.787,-2.483 -7.579,-4.917 -11.525,-6.792c-38.517,6.429 -71.467,29.246 -91.458,61.058" style="fill-rule:nonzero;"/><path d="M304.188,162.531c3.642,-36.117 5.738,-37.912 -30.904,-34.846c-0.025,0.646 -0.079,1.308 -0.183,1.971c-0.683,4.367 -3.025,8.112 -6.396,10.917c0.071,0.692 0.213,1.375 0.496,1.971c7.804,15.804 16.562,31.154 25.808,47.892c0.042,0 0.075,-0.021 0.125,-0.021c1.554,0 3.067,0.158 4.562,0.387c2.646,-9.896 5.554,-18.996 6.492,-28.271" style="fill-rule:nonzero;"/><path d="M221.798,94.317c5.417,5.6 11.154,10.167 17.25,13.775c4.137,-1.704 8.958,-2.325 13.967,-1.558c8.167,1.279 14.771,5.983 18.046,12.004c9.871,1.167 20.442,0.871 31.725,-0.588c-21.65,-14.967 -47.896,-23.754 -76.213,-23.754c-1.6,0 -3.188,0.067 -4.775,0.121" style="fill-rule:nonzero;"/><path d="M288.14,294.489c0.25,0.046 0.446,0.071 0.675,0.129c2.079,-3.421 5.117,-6.158 8.75,-7.875c-0.021,-0.208 -0.012,-0.408 -0.042,-0.617c-1.462,-11.479 -2.996,-22.95 -4.679,-35.733c-2.683,-0.042 -5.262,-0.429 -7.738,-1.125c-6.221,8.504 -11.783,16.092 -17.188,23.637c2.513,3.567 3.992,7.9 3.992,12.592c0,1.692 -0.2,3.333 -0.562,4.917c5.504,1.654 11.225,2.604 16.792,4.075" style="fill-rule:nonzero;"/><path d="M150.667,339.097c0.725,0.029 1.475,0.104 2.158,0.054c16.183,-1.25 30.425,-7.896 43.279,-17.192c-3.233,-8.371 -1.629,-17.467 3.971,-23.133c-16.804,-18.462 -34.833,-35.525 -58.167,-45.262c-8.963,-3.729 -18.675,-5.662 -28.133,-7.717c0.333,1.592 0.517,3.213 0.517,4.917c0,9.775 -6.037,18.062 -14.554,21.558c9.471,27.346 27.508,50.679 50.929,66.775" style="fill-rule:nonzero;"/><path d="M287.251,348.132c3.033,-4.392 5.15,-9.688 6.471,-15.804c0.683,-3.179 1.454,-6.346 2.037,-9.533c-5.95,-3.596 -9.946,-10.083 -9.946,-17.533c0,-0.596 0.042,-1.167 0.087,-1.75c-0.767,-0.212 -1.562,-0.4 -2.4,-0.512c-5.454,-0.8 -10.983,-3.113 -16.492,-3.688c-4.025,4.958 -10.158,8.133 -17.033,8.133c-3.233,0 -6.287,-0.725 -9.054,-1.992c-5.413,-2.446 -9.633,-7.021 -11.621,-12.671c-0.808,-2.296 -1.267,-4.725 -1.267,-7.287c0,-0.188 0.025,-0.383 0.025,-0.567c-34.954,-17.021 -64.067,-37.979 -88.204,-63.338c-4.062,3.367 -9.271,5.392 -14.958,5.392c-3.796,0 -7.371,-0.921 -10.542,-2.525c-2.704,2.804 -4.863,6.212 -6.679,10.012c1.017,1.058 1.942,2.204 2.754,3.433c42.142,4.283 71.4,29.446 98.787,55.937c5.037,-1.046 10.408,0.046 15.05,2.913c3.279,2.037 6.196,4.942 8.338,8.617c0.7,1.179 1.267,2.396 1.742,3.65c2.754,7.092 2.021,14.758 -1.713,20.379c3.05,10.633 3.762,21.2 -0.333,33.096c19.721,-0.825 38.325,-5.921 54.95,-14.362" style="fill-rule:nonzero;"/><path d="M223.451,336.661c-0.012,-0.042 -0.025,-0.083 -0.046,-0.125c-6.375,2.196 -13.596,0.679 -19.296,-3.75c-10.933,5.683 -21.867,11.696 -33.079,17.812c16.096,7.333 33.887,11.567 52.633,11.967c4.425,-4.146 4.129,-12.496 -0.213,-25.904" style="fill-rule:nonzero;"/><path d="M99.38,228.968c3.75,-2.292 6.787,-5.262 9.042,-8.771c-4.275,-4.242 -6.929,-10.104 -6.929,-16.617c0,-7.329 3.388,-13.887 8.675,-18.175c-1.454,-3.996 -3.467,-8.071 -5.95,-12.142c-7.475,16.567 -11.708,34.904 -11.838,54.233c2.446,0.162 4.812,0.621 7,1.471" style="fill-rule:nonzero;"/><path d="M308.552,325.607c-0.692,3.054 -1.383,6.633 -2.129,10.688c11.512,-8.533 21.592,-18.879 29.863,-30.6c-3.671,0.029 -6.858,0.1 -9.55,0.337c-0.383,10.2 -8.196,18.463 -18.183,19.575" style="fill-rule:nonzero;"/></g></svg>